<svg width="50" height="21" viewBox="0 0 50 21" fill="none" xmlns="http://www.w3.org/2000/svg">
<path d="M47.1731 16.5L6.22389 19.7505C11.9226 11.9472 8.5 4.33378 6.22389 1.22999C17.9917 2.4686 44.5209 3.47977 47.1731 3.99999C50.363 7.30707 48.5022 15.0756 47.1731 16.5Z" fill="black"/>
<path d="M47.2127 16.9984L47.4062 16.9831L47.5387 16.8411C47.9518 16.3984 48.3441 15.5533 48.6589 14.5624C48.9814 13.5477 49.2461 12.3043 49.3656 11.0017C49.6014 8.43373 49.2863 5.47066 47.533 3.65287L47.4238 3.53963L47.2694 3.50934C46.5646 3.37111 44.3637 3.20881 41.3414 3.02284C38.9756 2.87726 36.0733 2.71564 32.9195 2.54001C32.0131 2.48954 31.086 2.43791 30.1448 2.38517C21.7059 1.91229 12.1453 1.35048 6.27623 0.732738L5.15246 0.614458L5.82069 1.52567C8.03648 4.5472 11.3331 11.9067 5.82011 19.4556L5.17781 20.3351L6.26346 20.2489L47.2127 16.9984Z" stroke="white"/>
<path d="M8.5 10.5C8.5 7.83341 8.10263 5.39721 7.44404 3.60963C7.11548 2.71781 6.71232 1.9611 6.23938 1.41815C5.76746 0.876358 5.18114 0.5 4.5 0.5C3.81885 0.5 3.23254 0.876358 2.76061 1.41815C2.28768 1.9611 1.88452 2.71781 1.55595 3.60963C0.897374 5.39721 0.499999 7.83341 0.5 10.5C0.5 13.1666 0.897374 15.6028 1.55595 17.3904C1.88452 18.2822 2.28768 19.0389 2.76062 19.5818C3.23254 20.1236 3.81886 20.5 4.5 20.5C5.18114 20.5 5.76746 20.1236 6.23938 19.5818C6.71232 19.0389 7.11548 18.2822 7.44405 17.3904C8.10263 15.6028 8.5 13.1666 8.5 10.5Z" fill="black" stroke="white"/>
<path d="M49.5 10C49.5 8.29363 49.2128 6.72535 48.7293 5.56505C48.488 4.986 48.188 4.48474 47.8293 4.12062C47.4689 3.75473 47.0194 3.5 46.5 3.5C45.9806 3.5 45.5311 3.75473 45.1707 4.12062C44.812 4.48474 44.512 4.986 44.2707 5.56505C43.7872 6.72535 43.5 8.29363 43.5 10C43.5 11.7064 43.7872 13.2747 44.2707 14.4349C44.512 15.014 44.812 15.5153 45.1707 15.8794C45.5311 16.2453 45.9806 16.5 46.5 16.5C47.0194 16.5 47.4689 16.2453 47.8293 15.8794C48.188 15.5153 48.488 15.014 48.7293 14.4349C49.2128 13.2747 49.5 11.7064 49.5 10Z" stroke="white"/>
</svg>
