<svg width="41" height="14" viewBox="0 0 41 14" fill="none" xmlns="http://www.w3.org/2000/svg">
<path d="M1 9.01365V4C15.4 10.4 33 6.66667 40 4V9.01365C25.413 16.2333 7.92208 12.0218 1 9.01365Z" fill="black" stroke="white"/>
<path d="M40.5 4C40.5 4.08965 40.4555 4.23729 40.2385 4.44428C40.0212 4.6515 39.6732 4.87522 39.1796 5.10296C38.1951 5.55712 36.7389 5.97886 34.8999 6.33768C31.2302 7.05372 26.1388 7.5 20.5 7.5C14.8612 7.5 9.76975 7.05372 6.10007 6.33768C4.26111 5.97886 2.8049 5.55712 1.82044 5.10296C1.32676 4.87522 0.978848 4.6515 0.761534 4.44428C0.544454 4.23729 0.5 4.08965 0.5 4C0.5 3.91035 0.544454 3.76271 0.761534 3.55572C0.978848 3.3485 1.32676 3.12478 1.82044 2.89704C2.8049 2.44288 4.26111 2.02114 6.10007 1.66232C9.76975 0.946282 14.8612 0.5 20.5 0.5C26.1388 0.5 31.2302 0.946282 34.8999 1.66232C36.7389 2.02114 38.1951 2.44288 39.1796 2.89704C39.6732 3.12478 40.0212 3.3485 40.2385 3.55572C40.4555 3.76271 40.5 3.91035 40.5 4Z" fill="black" stroke="white"/>
</svg>
