<svg width="22" height="48" viewBox="0 0 22 48" fill="none" xmlns="http://www.w3.org/2000/svg">
<path d="M7.4344 45.2387L2 6.62012C9.80323 12.3188 17.3897 8.99458 20.2075 6.62012C18.9689 18.3879 16.3617 42.5865 15.8415 45.2387C12.5344 48.4286 8.8588 46.5678 7.4344 45.2387Z" fill="black"/>
<path d="M19.5539 5.41889C19.5539 7.30709 15.7916 8.83778 11.1505 8.83778C6.50934 8.83778 2.74698 7.30709 2.74698 5.41889C2.74698 3.53069 6.50934 2 11.1505 2C15.7916 2 19.5539 3.53069 19.5539 5.41889Z" fill="black"/>
<path d="M2.29488 6.21634L1.34014 5.51908L1.50488 6.6898L6.93927 45.3084L6.96393 45.4836L7.09328 45.6043C7.86318 46.3227 9.22692 47.1766 10.8558 47.4275C12.5118 47.6825 14.4165 47.3078 16.1886 45.5986L16.3018 45.4894L16.3321 45.335C16.5974 43.9822 17.3823 37.2378 18.252 29.4029C19.1239 21.5495 20.0854 12.5569 20.7048 6.67246L20.8348 5.43775L19.8854 6.23777C19.8798 6.24245 19.8742 6.24714 19.8686 6.25183C19.9871 5.99185 20.0539 5.71348 20.0539 5.41889C20.0539 4.76825 19.7277 4.19673 19.2402 3.72775C18.754 3.26009 18.0768 2.86199 17.281 2.53823C15.687 1.8897 13.5192 1.5 11.1505 1.5C8.78168 1.5 6.61394 1.8897 5.01988 2.53823C4.22411 2.86199 3.54693 3.26009 3.06074 3.72775C2.57318 4.19673 2.24698 4.76825 2.24698 5.41889C2.24698 5.75074 2.33183 6.06201 2.47968 6.34959C2.4181 6.30575 2.3565 6.26133 2.29488 6.21634Z" stroke="white"/>
<path d="M11.1981 9.98113C13.6279 9.98113 15.8743 9.57587 17.5505 8.88291C18.3863 8.53738 19.1284 8.10058 19.677 7.56439C20.2288 7.02499 20.6415 6.32375 20.6415 5.49057C20.6415 4.65738 20.2288 3.95614 19.677 3.41674C19.1284 2.88056 18.3863 2.44375 17.5505 2.09822C15.8743 1.40526 13.6279 1 11.1981 1C8.76836 1 6.52189 1.40526 4.84568 2.09822C4.00988 2.44375 3.26784 2.88056 2.71926 3.41674C2.16739 3.95614 1.75471 4.65738 1.75471 5.49057C1.75471 6.32375 2.16739 7.02499 2.71926 7.56439C3.26784 8.10058 4.00988 8.53738 4.84568 8.88291C6.52189 9.57587 8.76836 9.98113 11.1981 9.98113Z" stroke="white" stroke-width="2"/>
</svg>
