<svg width="163" height="146" viewBox="0 0 163 146" fill="none" xmlns="http://www.w3.org/2000/svg">
<path d="M57.499 68.4464V56.3839H60.0303C61.2438 56.3839 62.2021 56.5037 62.9053 56.7433C63.6605 56.9777 64.3454 57.3761 64.96 57.9386C66.2048 59.074 66.8271 60.5662 66.8271 62.4152C66.8271 64.2693 66.1787 65.7693 64.8818 66.9152C64.2308 67.4881 63.5485 67.8865 62.835 68.1105C62.1683 68.3344 61.223 68.4464 59.999 68.4464H57.499ZM59.3193 66.7355H60.1396C60.9574 66.7355 61.637 66.6496 62.1787 66.4777C62.7204 66.2954 63.21 66.0063 63.6475 65.6105C64.5433 64.7928 64.9912 63.7277 64.9912 62.4152C64.9912 61.0923 64.5485 60.0193 63.6631 59.1964C62.8662 58.4621 61.6917 58.0949 60.1396 58.0949H59.3193V66.7355Z" fill="white"/>
<path d="M150.773 118.059V128.411H148.953V118.059H146.18V116.348H153.539V118.059H150.773Z" fill="white"/>
<circle cx="73" cy="73" r="72" stroke="white" stroke-width="2"/>
<path d="M125.107 119.107L122.959 113.748L119.392 118.288L125.107 119.107ZM106.548 105.161L121.26 116.72L121.877 115.934L107.166 104.375L106.548 105.161Z" fill="white"/>
<path d="M129.608 121.719L131.863 127.034L135.339 122.424L129.608 121.719ZM148.442 135.292L133.503 124.029L132.901 124.828L147.84 136.091L148.442 135.292Z" fill="white"/>
<path d="M42.63 131.74L47.6299 128.853L42.6298 125.967L42.63 131.74ZM106.63 20.8801L101.63 23.7668L106.63 26.6536L106.63 20.8801ZM104.418 23.7087L91.4628 46.1502L92.3289 46.6502L105.284 24.2086L104.418 23.7087ZM91.4628 46.1502L44.4468 127.593L45.3129 128.093L92.3289 46.6502L91.4628 46.1502ZM44.8358 128.908L92.3288 46.6502L91.4628 46.1502L43.9698 128.408L44.8358 128.908ZM92.3288 46.6502L104.813 25.0272L103.947 24.5272L91.4628 46.1502L92.3288 46.6502Z" fill="white"/>
</svg>
