<svg width="87" height="208" viewBox="0 0 87 208" fill="none" xmlns="http://www.w3.org/2000/svg">
<path d="M67.7355 8.53744L84.5269 188.889C50.3464 164.705 17.5809 180.029 4.28052 190.093C8.88265 139.024 11.4932 20.8751 13.5749 9.34958C30.9998 0.500005 58.9998 3.00001 67.7355 8.53744Z" fill="black"/>
<path d="M68.2334 8.49109L68.2106 8.24659L68.0032 8.11513C65.7462 6.68447 62.2915 5.47455 58.1416 4.59463C53.9819 3.71262 49.0868 3.15456 43.9239 3.04849C33.6089 2.83659 22.1614 4.42796 13.3485 8.90379L13.1271 9.01627L13.0829 9.26072C12.5548 12.1844 12.0005 21.7761 11.3922 35.249C10.9234 45.63 10.4215 58.3481 9.87628 72.1662C9.71262 76.3137 9.54505 80.5604 9.37329 84.8727C7.88498 122.239 6.08223 164.529 3.78254 190.048L3.68112 191.173L4.58222 190.491C17.8012 180.489 50.3147 165.295 84.2381 189.298L85.1255 189.925L85.0247 188.843L68.2334 8.49109Z" stroke="white"/>
<path d="M41.0941 156.993L38.282 151.951L44.0549 152.037L41.0941 156.993ZM42.9072 35.0068L45.7194 40.0491L39.9465 39.9633L42.9072 35.0068ZM43.3568 38.4027L41.6445 153.612L40.6446 153.597L42.3569 38.3879L43.3568 38.4027Z" fill="white"/>
<path d="M44.2463 176.159C32.8364 176.33 22.5103 178.188 15.0345 181.07C11.2986 182.511 8.24841 184.217 6.1313 186.117C4.01532 188.017 2.78481 190.157 2.81917 192.448C2.85354 194.74 4.14765 196.842 6.31963 198.677C8.49278 200.513 11.5928 202.127 15.3702 203.455C22.929 206.112 33.3062 207.66 44.7161 207.488C56.1259 207.317 66.452 205.459 73.9278 202.577C77.6637 201.136 80.7139 199.43 82.831 197.53C84.947 195.63 86.1775 193.491 86.1431 191.199C86.1088 188.907 84.8147 186.805 82.6427 184.97C80.4695 183.134 77.3695 181.52 73.5921 180.192C66.0333 177.535 55.6561 175.988 44.2463 176.159Z" fill="black" stroke="white"/>
<path d="M30.7651 92.5156V102.867H34.312V104.578H28.9448V92.5156H30.7651Z" fill="white"/>
<path d="M70.5 8C70.5 8.23238 70.3844 8.51598 70.041 8.85163C69.6968 9.18811 69.1622 9.53662 68.4287 9.88346C66.9643 10.5759 64.8132 11.2127 62.1151 11.7523C56.7272 12.8299 49.2616 13.5 41 13.5C32.7384 13.5 25.2728 12.8299 19.8849 11.7523C17.1868 11.2127 15.0357 10.5759 13.5713 9.88346C12.8378 9.53662 12.3032 9.18811 11.959 8.85163C11.6156 8.51598 11.5 8.23238 11.5 8C11.5 7.76762 11.6156 7.48402 11.959 7.14837C12.3032 6.81189 12.8378 6.46338 13.5713 6.11654C15.0357 5.42407 17.1868 4.78727 19.8849 4.24765C25.2728 3.17006 32.7384 2.5 41 2.5C49.2616 2.5 56.7272 3.17006 62.1151 4.24765C64.8132 4.78727 66.9643 5.42407 68.4287 6.11654C69.1622 6.46338 69.6968 6.81189 70.041 7.14837C70.3844 7.48402 70.5 7.76762 70.5 8Z" fill="black" stroke="white"/>
</svg>
