<svg width="87" height="209" viewBox="0 0 87 209" fill="none" xmlns="http://www.w3.org/2000/svg">
<path d="M68.2339 9.49106L68.2167 9.30645L68.0833 9.17768C67.286 8.40799 66.0195 7.77342 64.4509 7.24793C62.8707 6.71854 60.9335 6.28369 58.7485 5.94133C54.3774 5.25646 48.9696 4.93496 43.3469 4.98588C37.7229 5.03683 31.8703 5.4605 26.6078 6.27106C21.3542 7.08027 16.6535 8.28027 13.355 9.90078L13.1283 10.0122L13.0834 10.2607C12.5553 13.1844 12.001 22.7761 11.3926 36.2489C10.9239 46.63 10.422 59.3481 9.87677 73.1662C9.71311 77.3137 9.54554 81.5603 9.37378 85.8726C7.88547 123.239 6.08272 165.529 3.78303 191.048L3.68161 192.173L4.58271 191.491C17.8017 181.489 50.3152 166.295 84.2385 190.298L85.126 190.925L85.0252 189.843L68.2339 9.49106Z" fill="#535353" stroke="white"/>
<path d="M44.2467 177.159C32.8369 177.33 22.5108 179.188 15.035 182.07C11.2991 183.511 8.2489 185.217 6.13179 187.117C4.01581 189.017 2.7853 191.156 2.81966 193.448C2.85402 195.74 4.14814 197.842 6.32012 199.677C8.49327 201.513 11.5933 203.127 15.3707 204.455C22.9295 207.112 33.3067 208.659 44.7165 208.488C56.1264 208.317 66.4525 206.459 73.9283 203.577C77.6642 202.136 80.7144 200.43 82.8315 198.53C84.9475 196.63 86.178 194.49 86.1436 192.199C86.1093 189.907 84.8152 187.805 82.6432 185.97C80.47 184.134 77.37 182.52 73.5926 181.192C66.0338 178.535 55.6566 176.987 44.2467 177.159Z" fill="black" stroke="white"/>
<path d="M43.2868 157.986L40.2952 153.048L46.0675 152.927L43.2868 157.986ZM40.7144 36.0136L43.7059 40.9516L37.9337 41.0734L40.7144 36.0136ZM41.2857 39.3912L43.7152 154.588L42.7154 154.609L40.2859 39.4123L41.2857 39.3912Z" fill="white"/>
<path d="M70.5 8C70.5 8.23238 70.3844 8.51598 70.041 8.85163C69.6968 9.18811 69.1622 9.53662 68.4287 9.88346C66.9643 10.5759 64.8132 11.2127 62.1151 11.7523C56.7272 12.8299 49.2616 13.5 41 13.5C32.7384 13.5 25.2728 12.8299 19.8849 11.7523C17.1868 11.2127 15.0357 10.5759 13.5713 9.88346C12.8378 9.53662 12.3032 9.18811 11.959 8.85163C11.6156 8.51598 11.5 8.23238 11.5 8C11.5 7.76762 11.6156 7.48402 11.959 7.14837C12.3032 6.81189 12.8378 6.46338 13.5713 6.11654C15.0357 5.42407 17.1868 4.78727 19.8849 4.24765C25.2728 3.17006 32.7384 2.5 41 2.5C49.2616 2.5 56.7272 3.17006 62.1151 4.24765C64.8132 4.78727 66.9643 5.42407 68.4287 6.11654C69.1622 6.46338 69.6968 6.81189 70.041 7.14837C70.3844 7.48402 70.5 7.76762 70.5 8Z" fill="black" stroke="white"/>
<path d="M31.7656 90.5156V100.867H35.3125V102.578H29.9453V90.5156H31.7656Z" fill="white"/>
</svg>
