<svg width="165" height="144" viewBox="0 0 165 144" fill="none" xmlns="http://www.w3.org/2000/svg">
<path d="M41.8298 143L1.15249 72L41.8298 1H123.173L163.848 72L123.173 143H41.8298Z" stroke="white" stroke-width="2"/>
<path d="M27.3611 73L27.3611 72.5L27.3611 73ZM24 73L29 75.8867L29 70.1132L24 73ZM145 73L140 70.1132L140 75.8868L145 73ZM141.639 72.5L27.3611 72.5L27.3611 73.5L141.639 73.5L141.639 72.5Z" fill="white"/>
<path d="M79.106 66V53.9375H81.6373C82.8508 53.9375 83.8092 54.0573 84.5123 54.2969C85.2675 54.5312 85.9524 54.9297 86.567 55.4922C87.8118 56.6276 88.4342 58.1198 88.4342 59.9688C88.4342 61.8229 87.7857 63.3229 86.4888 64.4688C85.8378 65.0417 85.1555 65.4401 84.442 65.6641C83.7753 65.888 82.83 66 81.606 66H79.106ZM80.9263 64.2891H81.7467C82.5644 64.2891 83.244 64.2031 83.7857 64.0312C84.3274 63.849 84.817 63.5599 85.2545 63.1641C86.1503 62.3464 86.5982 61.2812 86.5982 59.9688C86.5982 58.6458 86.1555 57.5729 85.2701 56.75C84.4732 56.0156 83.2987 55.6484 81.7467 55.6484H80.9263V64.2891Z" fill="white"/>
</svg>
