<svg width="201" height="72" viewBox="0 0 201 72" fill="none" xmlns="http://www.w3.org/2000/svg">
<path d="M200 14.8824L51 1V60L200 44.6303V14.8824Z" fill="black" stroke="white"/>
<path d="M125.766 58.5156V68.8672H129.312V70.5781H123.945V58.5156H125.766Z" fill="white"/>
<path d="M195 29L189.976 26.156L190.025 31.9293L195 29ZM74 30L79.0237 32.8454L78.976 27.0721L74 30ZM77.8161 30.5L191.295 29.5316L191.287 28.5317L77.8076 29.5L77.8161 30.5ZM191.287 28.5317L78.4957 29.4629L78.504 30.4628L191.295 29.5316L191.287 28.5317Z" fill="white"/>
<path d="M17.7897 60.5L0.576459 30.5L17.7897 0.5H52.2115L69.4235 30.5L52.2115 60.5H17.7897Z" fill="black" stroke="white"/>
</svg>
