<svg width="70" height="193" viewBox="0 0 70 193" fill="none" xmlns="http://www.w3.org/2000/svg">
<path d="M38 1H51.5" stroke="white" stroke-width="0.5"/>
<path d="M38 192H51.5" stroke="white" stroke-width="0.5"/>
<path d="M56.5 96.5C56.5 123.126 54.4307 147.218 51.0904 164.642C49.4195 173.358 47.4352 180.379 45.2456 185.21C44.1501 187.627 43.0153 189.468 41.8635 190.698C40.7114 191.927 39.5873 192.5 38.5 192.5C37.4127 192.5 36.2886 191.927 35.1365 190.698C33.9847 189.468 32.8499 187.627 31.7544 185.21C29.5648 180.379 27.5805 173.358 25.9096 164.642C22.5693 147.218 20.5 123.126 20.5 96.5C20.5 69.8739 22.5693 45.782 25.9096 28.3583C27.5805 19.6424 29.5648 12.6207 31.7544 7.78986C32.8499 5.37289 33.9847 3.53183 35.1365 2.30238C36.2886 1.07268 37.4127 0.5 38.5 0.5C39.5873 0.5 40.7114 1.07268 41.8635 2.30238C43.0153 3.53183 44.1501 5.37289 45.2456 7.78986C47.4352 12.6207 49.4195 19.6424 51.0904 28.3583C54.4307 45.782 56.5 69.8739 56.5 96.5Z" fill="#535353" stroke="white"/>
<path d="M69.5 96.5C69.5 123.126 67.4307 147.218 64.0904 164.642C62.4195 173.358 60.4352 180.379 58.2456 185.21C57.1501 187.627 56.0153 189.468 54.8635 190.698C53.7114 191.927 52.5873 192.5 51.5 192.5C50.4127 192.5 49.2886 191.927 48.1365 190.698C46.9847 189.468 45.8499 187.627 44.7544 185.21C42.5648 180.379 40.5805 173.358 38.9096 164.642C35.5693 147.218 33.5 123.126 33.5 96.5C33.5 69.8739 35.5693 45.782 38.9096 28.3583C40.5805 19.6424 42.5648 12.6207 44.7544 7.78986C45.8499 5.37289 46.9847 3.53183 48.1365 2.30238C49.2886 1.07268 50.4127 0.5 51.5 0.5C52.5873 0.5 53.7114 1.07268 54.8635 2.30238C56.0153 3.53183 57.1501 5.37289 58.2456 7.78986C60.4352 12.6207 62.4195 19.6424 64.0904 28.3583C67.4307 45.782 69.5 69.8739 69.5 96.5Z" fill="black" stroke="white"/>
<path d="M36.6272 105.565C36.4301 105.759 36.427 106.075 36.6203 106.272L39.7713 109.485C39.9646 109.682 40.2812 109.685 40.4784 109.492C40.6755 109.299 40.6786 108.982 40.4852 108.785L37.6844 105.929L40.5401 103.128C40.7373 102.935 40.7404 102.618 40.547 102.421C40.3536 102.224 40.0371 102.221 39.8399 102.414L36.6272 105.565ZM52.9814 105.578L36.9822 105.422L36.9725 106.422L52.9717 106.578L52.9814 105.578Z" fill="white"/>
<path d="M17.3306 106.354C17.5259 106.158 17.5259 105.842 17.3306 105.646L14.1486 102.464C13.9534 102.269 13.6368 102.269 13.4415 102.464C13.2463 102.66 13.2463 102.976 13.4415 103.172L16.2699 106L13.4415 108.828C13.2463 109.024 13.2463 109.34 13.4415 109.536C13.6368 109.731 13.9534 109.731 14.1486 109.536L17.3306 106.354ZM0.977051 106.5H16.9771L16.9771 105.5H0.977051L0.977051 106.5Z" fill="white"/>
<path d="M11.8168 88.5667V98.9182H9.99653V88.5667H7.22309V86.8557H14.5825V88.5667H11.8168Z" fill="white"/>
</svg>
