<svg width="146" height="146" viewBox="0 0 146 146" fill="none" xmlns="http://www.w3.org/2000/svg">
<circle cx="73" cy="73" r="72" stroke="white" stroke-width="2"/>
<path d="M42 132L42.0127 126.227L47.0064 129.124L42 132ZM104.489 24.1542L104.493 29.9277L99.4909 27.044L104.489 24.1542ZM103.254 27.44L90.5899 49.263L89.7249 48.7611L102.389 26.9381L103.254 27.44ZM90.5899 49.263L44.691 128.359L43.8261 127.857L89.7249 48.7611L90.5899 49.263ZM43.5293 128.885L89.7242 48.7623L90.5906 49.2618L44.3957 129.385L43.5293 128.885ZM89.7242 48.7623L101.808 27.803L102.675 28.3024L90.5906 49.2618L89.7242 48.7623Z" fill="white"/>
<path d="M57.5356 76.9182V64.8557H60.0668C61.2804 64.8557 62.2387 64.9755 62.9418 65.2151C63.697 65.4495 64.3819 65.8479 64.9965 66.4104C66.2413 67.5458 66.8637 69.038 66.8637 70.887C66.8637 72.7412 66.2153 74.2412 64.9184 75.387C64.2674 75.9599 63.5851 76.3583 62.8715 76.5823C62.2049 76.8063 61.2595 76.9182 60.0356 76.9182H57.5356ZM59.3559 75.2073H60.1762C60.9939 75.2073 61.6736 75.1214 62.2153 74.9495C62.7569 74.7672 63.2465 74.4781 63.684 74.0823C64.5799 73.2646 65.0278 72.1995 65.0278 70.887C65.0278 69.5641 64.5851 68.4912 63.6997 67.6682C62.9028 66.9339 61.7283 66.5667 60.1762 66.5667H59.3559V75.2073Z" fill="white"/>
</svg>
