<svg width="81" height="253" viewBox="0 0 81 253" fill="none" xmlns="http://www.w3.org/2000/svg">
<path d="M1 220.5H80M1 220.5L13.0611 1H67.0344L80 220.5M1 220.5V235.5H80V220.5" stroke="white"/>
<rect x="1.30151" y="221" width="78.3969" height="14" fill="black"/>
<path d="M34.8166 199.567V209.918H32.9963V199.567H30.2228V197.856H37.5822V199.567H34.8166Z" fill="white"/>
<path d="M23.5625 219.354C23.7577 219.549 24.0743 219.549 24.2696 219.354L27.4515 216.172C27.6468 215.976 27.6468 215.66 27.4515 215.464C27.2563 215.269 26.9397 215.269 26.7444 215.464L23.916 218.293L21.0876 215.464C20.8923 215.269 20.5757 215.269 20.3805 215.464C20.1852 215.66 20.1852 215.976 20.3805 216.172L23.5625 219.354ZM23.416 203L23.416 219L24.416 219L24.416 203L23.416 203Z" fill="white"/>
<path d="M36.3306 236.646C36.1353 236.451 35.8188 236.451 35.6235 236.646L32.4415 239.828C32.2463 240.024 32.2463 240.34 32.4415 240.536C32.6368 240.731 32.9534 240.731 33.1486 240.536L35.9771 237.707L38.8055 240.536C39.0007 240.731 39.3173 240.731 39.5126 240.536C39.7078 240.34 39.7078 240.024 39.5126 239.828L36.3306 236.646ZM36.4771 253L36.4771 237L35.4771 237L35.4771 253L36.4771 253Z" fill="white"/>
</svg>
