<svg width="80" height="148" viewBox="0 0 80 148" fill="none" xmlns="http://www.w3.org/2000/svg">
<rect x="1" y="1" width="78" height="146" fill="black" stroke="white" stroke-width="2"/>
<path d="M16.2508 75.3962L16.2508 74.8962L16.2508 75.3962ZM14.5597 75.3962L19.5597 78.283L19.5597 72.5095L14.5597 75.3962ZM75.4402 75.3962L70.4402 72.5095L70.4402 78.283L75.4402 75.3962ZM73.7491 74.8962L16.2508 74.8962L16.2508 75.8962L73.7491 75.8962L73.7491 74.8962Z" fill="white"/>
<path d="M62.6216 22.2103L63.1216 22.2103L62.6216 22.2103ZM62.6216 19.0818L59.7348 24.0818L65.5083 24.0818L62.6216 19.0818ZM62.6216 131.711L65.5083 126.711L59.7348 126.711L62.6216 131.711ZM63.1216 128.582L63.1216 22.2103L62.1216 22.2103L62.1216 128.582L63.1216 128.582Z" fill="white"/>
<path d="M55.1566 32.8557V43.2073H58.7034V44.9182H53.3363V32.8557H55.1566Z" fill="white"/>
<path d="M28.9383 81.8557L32.0789 89.9182L35.3602 81.2698L38.5008 89.9182L41.8367 81.8557H43.8133L38.4227 94.6839L35.3211 86.137L32.0867 94.6917L26.9617 81.8557H28.9383Z" fill="white"/>
</svg>
