<svg width="163" height="146" viewBox="0 0 163 146" fill="none" xmlns="http://www.w3.org/2000/svg">
<circle cx="73.0536" cy="73" r="57.6607" stroke="white" stroke-width="2"/>
<path d="M57.5525 68.4464V56.3839H60.0837C61.2973 56.3839 62.2556 56.5037 62.9587 56.7433C63.7139 56.9777 64.3988 57.3761 65.0134 57.9386C66.2582 59.074 66.8806 60.5662 66.8806 62.4152C66.8806 64.2693 66.2322 65.7693 64.9353 66.9152C64.2843 67.4881 63.602 67.8865 62.8884 68.1105C62.2218 68.3344 61.2764 68.4464 60.0525 68.4464H57.5525ZM59.3728 66.7355H60.1931C61.0108 66.7355 61.6905 66.6496 62.2322 66.4777C62.7738 66.2954 63.2634 66.0063 63.7009 65.6105C64.5968 64.7928 65.0447 63.7277 65.0447 62.4152C65.0447 61.0923 64.602 60.0193 63.7166 59.1964C62.9197 58.4621 61.7452 58.0949 60.1931 58.0949H59.3728V66.7355Z" fill="white"/>
<path d="M150.827 118.059V128.411H149.007V118.059H146.233V116.348H153.593V118.059H150.827Z" fill="white"/>
<circle cx="73.0536" cy="73" r="72" stroke="white" stroke-width="2"/>
<path d="M112.161 112.107L110.013 106.748L106.446 111.288L112.161 112.107ZM93.6018 98.161L108.313 109.72L108.931 108.934L94.2196 97.3747L93.6018 98.161Z" fill="white"/>
<path d="M127.662 122.719L129.917 128.034L133.392 123.424L127.662 122.719ZM146.496 136.292L131.556 125.029L130.954 125.828L145.894 137.091L146.496 136.292Z" fill="white"/>
<path d="M38.6836 136.74L43.6639 133.82L38.6444 130.967L38.6836 136.74ZM110.256 11.3852L105.251 14.2626L110.246 17.1587L110.256 11.3852ZM107.591 14.4804L93.1533 39.885L94.0227 40.3791L108.461 14.9745L107.591 14.4804ZM93.1533 39.885L40.4724 132.581L41.3418 133.075L94.0227 40.3791L93.1533 39.885ZM40.2946 133.042L94.0206 40.3829L93.1555 39.8813L39.4295 132.54L40.2946 133.042ZM94.0206 40.3829L108.432 15.5289L107.566 15.0273L93.1555 39.8813L94.0206 40.3829Z" fill="white"/>
</svg>
