<svg width="202" height="98" viewBox="0 0 202 98" fill="none" xmlns="http://www.w3.org/2000/svg">
<path d="M192.853 54.6187L25.274 75.8423C50.1159 44.5011 35.8211 13.8761 25.5685 2.48127C76.5861 7.67673 181.495 18.6032 192.989 20.7454C206.77 34.1257 198.641 48.9028 192.853 54.6187Z" fill="black"/>
<path d="M192.916 55.1148L193.084 55.0935L193.205 54.9745C196.154 52.0617 199.698 46.848 200.752 40.64C201.813 34.3987 200.348 27.1932 193.338 20.3867L193.229 20.2815L193.081 20.2539C187.309 19.1781 158.178 15.9083 124.153 12.2612C90.111 8.61221 51.1285 4.58162 25.6192 1.98384L24.3303 1.85258L25.1968 2.8157C35.3497 14.0997 49.5204 44.4474 24.8821 75.5317L24.1207 76.4923L25.3368 76.3383L192.916 55.1148Z" stroke="white"/>
<path d="M99.3438 83.9375V94.2891H102.891V96H97.5235V83.9375H99.3438Z" fill="white"/>
<path d="M48.3067 35.7932L48.3087 35.2932L48.3067 35.7932ZM44.1542 35.7765L49.1426 38.6833L49.1658 32.9099L44.1542 35.7765ZM193.645 36.3767L188.656 33.4699L188.633 39.2434L193.645 36.3767ZM189.494 35.8601L48.3087 35.2932L48.3047 36.2932L189.49 36.8601L189.494 35.8601Z" fill="white"/>
<path d="M0.7311 39.0627C0.688657 49.6335 2.75246 59.2367 6.1464 66.221C9.52448 73.1727 14.3062 77.6825 19.7626 77.7044C25.2189 77.7263 30.0367 73.2551 33.4705 66.3307C36.9204 59.3738 39.0612 49.7876 39.1037 39.2168C39.1461 28.6459 37.0823 19.0428 33.6884 12.0584C30.3103 5.10674 25.5286 0.596939 20.0722 0.575031C14.6159 0.553124 9.7981 5.02438 6.36431 11.9487C2.91439 18.9056 0.773543 28.4919 0.7311 39.0627Z" fill="black" stroke="white"/>
<ellipse cx="19" cy="39" rx="6" ry="23" fill="white"/>
</svg>
