<svg width="163" height="146" viewBox="0 0 163 146" fill="none" xmlns="http://www.w3.org/2000/svg">
<path d="M57.4989 68.4464V56.3839H60.0302C61.2437 56.3839 62.202 56.5037 62.9052 56.7433C63.6604 56.9777 64.3453 57.3761 64.9598 57.9386C66.2046 59.074 66.827 60.5662 66.827 62.4152C66.827 64.2693 66.1786 65.7693 64.8817 66.9152C64.2307 67.4881 63.5484 67.8865 62.8348 68.1105C62.1682 68.3344 61.2229 68.4464 59.9989 68.4464H57.4989ZM59.3192 66.7355H60.1395C60.9572 66.7355 61.6369 66.6496 62.1786 66.4777C62.7203 66.2954 63.2098 66.0063 63.6473 65.6105C64.5432 64.7928 64.9911 63.7277 64.9911 62.4152C64.9911 61.0923 64.5484 60.0193 63.663 59.1964C62.8661 58.4621 61.6916 58.0949 60.1395 58.0949H59.3192V66.7355Z" fill="white"/>
<path d="M150.773 118.059V128.411H148.953V118.059H146.18V116.348H153.539V118.059H150.773Z" fill="white"/>
<circle cx="73" cy="73" r="72" stroke="white" stroke-width="2"/>
<path d="M112.107 112.107L109.959 106.748L106.392 111.288L112.107 112.107ZM93.5483 98.161L108.26 109.72L108.878 108.934L94.1661 97.3747L93.5483 98.161Z" fill="white"/>
<path d="M127.609 122.719L129.863 128.034L133.339 123.424L127.609 122.719ZM146.442 136.292L131.503 125.029L130.901 125.828L145.84 137.091L146.442 136.292Z" fill="white"/>
<path d="M38.6301 136.74L43.6103 133.82L38.5908 130.967L38.6301 136.74ZM110.203 11.3852L105.197 14.2626L110.192 17.1587L110.203 11.3852ZM107.538 14.4804L93.0997 39.885L93.9691 40.3791L108.407 14.9745L107.538 14.4804ZM93.0997 39.885L40.4188 132.581L41.2882 133.075L93.9691 40.3791L93.0997 39.885ZM40.241 133.042L93.967 40.3829L93.1019 39.8813L39.3759 132.54L40.241 133.042ZM93.967 40.3829L108.378 15.5289L107.513 15.0273L93.1019 39.8813L93.967 40.3829Z" fill="white"/>
</svg>
