<svg width="207" height="97" viewBox="0 0 207 97" fill="none" xmlns="http://www.w3.org/2000/svg">
<path d="M197.878 54.3881L198.046 54.3661L198.166 54.2466C201.103 51.322 204.626 46.0942 205.656 39.8819C206.691 33.6364 205.197 26.4368 198.16 19.6586L198.051 19.5539L197.903 19.5268C192.126 18.4742 162.983 15.3213 128.943 11.8109C94.8867 8.29863 55.8883 4.42459 30.3687 1.92924L29.0793 1.80316L29.9497 2.76279C40.1478 14.006 54.4402 44.2965 29.927 75.4795L29.1694 76.4432L30.3849 76.2843L197.878 54.3881Z" fill="#535353" stroke="white"/>
<path d="M104.446 83.5732V93.9248H107.993V95.6357H102.626V83.5732H104.446Z" fill="white"/>
<path d="M78 36L83 33.1133L83 38.8868L78 36ZM200 36L195 38.8868L195 33.1133L200 36ZM196.611 36.5L81.3889 36.5L81.3889 35.5L196.611 35.5L196.611 36.5Z" fill="white"/>
<path d="M0.499996 39C0.499994 60.2372 16.8165 77.5 37 77.5C57.1835 77.5 73.5 60.2372 73.5 39C73.5 17.7629 57.1835 0.500029 37 0.500027C16.8165 0.500025 0.499998 17.7629 0.499996 39Z" fill="black" stroke="white"/>
</svg>
