<svg width="133" height="253" viewBox="0 0 133 253" fill="none" xmlns="http://www.w3.org/2000/svg">
<path d="M1 220.5H132M1 220.5L21 1H110.5L132 220.5M1 220.5V235.5H132V220.5" stroke="white"/>
<rect x="1.5" y="221" width="130" height="14" fill="black"/>
<path d="M56.4739 199.567V209.918H54.6536V199.567H51.8802V197.856H59.2396V199.567H56.4739Z" fill="white"/>
<path d="M38.6464 219.354C38.8417 219.549 39.1583 219.549 39.3536 219.354L42.5355 216.172C42.7308 215.976 42.7308 215.66 42.5355 215.464C42.3403 215.269 42.0237 215.269 41.8284 215.464L39 218.293L36.1716 215.464C35.9763 215.269 35.6597 215.269 35.4645 215.464C35.2692 215.66 35.2692 215.976 35.4645 216.172L38.6464 219.354ZM38.5 203L38.5 219L39.5 219L39.5 203L38.5 203Z" fill="white"/>
<path d="M59.3536 236.646C59.1583 236.451 58.8417 236.451 58.6464 236.646L55.4645 239.828C55.2692 240.024 55.2692 240.34 55.4645 240.536C55.6597 240.731 55.9763 240.731 56.1716 240.536L59 237.707L61.8284 240.536C62.0237 240.731 62.3403 240.731 62.5355 240.536C62.7308 240.34 62.7308 240.024 62.5355 239.828L59.3536 236.646ZM59.5 253L59.5 237L58.5 237L58.5 253L59.5 253Z" fill="white"/>
</svg>
