<svg width="148" height="148" viewBox="0 0 148 148" fill="none" xmlns="http://www.w3.org/2000/svg">
<rect x="1" y="1" width="146" height="146" stroke="white" stroke-width="2"/>
<path d="M20.8141 75.3962L20.8141 74.8962L20.8141 75.3962ZM17.6855 75.3962L22.6855 78.283L22.6855 72.5095L17.6855 75.3962ZM130.314 75.3962L125.314 72.5095L125.314 78.283L130.314 75.3962ZM127.186 74.8962L20.8141 74.8962L20.8141 75.8962L127.186 75.8962L127.186 74.8962Z" fill="white"/>
<path d="M114 22.2103L114.5 22.2103L114 22.2103ZM114 19.0818L111.113 24.0818L116.887 24.0818L114 19.0818ZM114 131.711L116.887 126.711L111.113 126.711L114 131.711ZM114.5 128.582L114.5 22.2103L113.5 22.2103L113.5 128.582L114.5 128.582Z" fill="white"/>
<path d="M102.279 32.8557V43.2073H105.825V44.9182H100.458V32.8557H102.279Z" fill="white"/>
<path d="M33.1146 83.8557L36.2552 91.9182L39.5364 83.2698L42.6771 91.9182L46.013 83.8557H47.9896L42.5989 96.6839L39.4974 88.137L36.263 96.6917L31.138 83.8557H33.1146Z" fill="white"/>
</svg>
