<svg width="202" height="84" viewBox="0 0 202 84" fill="none" xmlns="http://www.w3.org/2000/svg">
<path d="M201 47.5671L66.996 63L0.999997 63L1 0.999991L66.996 0.999994L201 16.4329L201 47.5671Z" fill="black"/>
<path d="M66.996 0.999994L66.996 63M66.996 0.999994L201 16.4329L201 47.5671L66.996 63M66.996 0.999994L1 0.999991L0.999997 63L66.996 63M60 8.5L60 56.5L8 56.5L8 8.49999L60 8.5Z" stroke="white"/>
<path d="M126.766 70.5156V80.8672H130.312V82.5781H124.945V70.5156H126.766Z" fill="white"/>
<path d="M199 30L193.977 27.1529L194.023 32.9262L199 30ZM68.5 31L73.522 33.8484L73.4778 28.0751L68.5 31ZM72.6151 31.5L195.004 30.5316L194.996 29.5317L72.6071 30.5L72.6151 31.5ZM194.996 29.5317L72.996 30.4656L73.0037 31.4655L195.004 30.5316L194.996 29.5317Z" fill="white"/>
</svg>
