<svg width="190" height="159" viewBox="0 0 190 159" fill="none" xmlns="http://www.w3.org/2000/svg">
<rect x="15" y="15" width="128" height="128" stroke="white" stroke-width="2"/>
<rect x="1" y="1" width="157" height="157" stroke="white" stroke-width="2"/>
<path d="M22.3611 81L22.3611 80.5L22.3611 81ZM19 81L24 83.8867L24 78.1132L19 81ZM140 81L135 78.1132L135 83.8868L140 81ZM136.639 80.5L22.3611 80.5L22.3611 81.5L136.639 81.5L136.639 80.5Z" fill="white"/>
<path d="M177.773 113.648V124H175.953V113.648H173.18V111.938H180.539V113.648H177.773Z" fill="white"/>
<path d="M141.657 128.881L136.77 125.806L136.551 131.576L141.657 128.881ZM118.445 128.5L137.141 129.21L137.179 128.21L118.483 127.5L118.445 128.5Z" fill="white"/>
<path d="M160.436 129.583L165.383 132.559L165.487 126.786L160.436 129.583ZM183.65 129.5L164.944 129.164L164.926 130.164L183.632 130.5L183.65 129.5Z" fill="white"/>
</svg>
