<svg width="159" height="159" viewBox="0 0 159 159" fill="none" xmlns="http://www.w3.org/2000/svg">
<rect x="1" y="1" width="157" height="157" stroke="white" stroke-width="2"/>
<path d="M22.3611 81L22.3611 80.5L22.3611 81ZM19 81L24 83.8867L24 78.1132L19 81ZM140 81L135 78.1132L135 83.8868L140 81ZM136.639 80.5L22.3611 80.5L22.3611 81.5L136.639 81.5L136.639 80.5Z" fill="white"/>
<path d="M81.106 74V61.9375H83.6373C84.8508 61.9375 85.8092 62.0573 86.5123 62.2969C87.2675 62.5312 87.9524 62.9297 88.567 63.4922C89.8118 64.6276 90.4342 66.1198 90.4342 67.9688C90.4342 69.8229 89.7857 71.3229 88.4888 72.4688C87.8378 73.0417 87.1555 73.4401 86.442 73.6641C85.7753 73.888 84.83 74 83.606 74H81.106ZM82.9263 72.2891H83.7467C84.5644 72.2891 85.244 72.2031 85.7857 72.0312C86.3274 71.849 86.817 71.5599 87.2545 71.1641C88.1503 70.3464 88.5982 69.2812 88.5982 67.9688C88.5982 66.6458 88.1555 65.5729 87.2701 64.75C86.4732 64.0156 85.2987 63.6484 83.7467 63.6484H82.9263V72.2891Z" fill="white"/>
</svg>
